<svg xmlns="http://www.w3.org/2000/svg" viewBox="0 0 256 256">
  <defs>
    <radialGradient id="ball" cx="40%" cy="35%" r="55%">
      <stop offset="0%" stop-color="#ffffff"/>
      <stop offset="100%" stop-color="#d4d4d4"/>
    </radialGradient>
  </defs>
  <!-- Ball body -->
  <circle cx="128" cy="128" r="120" fill="url(#ball)" stroke="#222" stroke-width="4"/>
  <!-- Pentagon patches -->
  <polygon points="128,48 158,72 148,108 108,108 98,72" fill="#1a1a1a"/>
  <polygon points="198,100 208,140 182,168 152,152 158,112" fill="#1a1a1a"/>
  <polygon points="58,100 48,140 74,168 104,152 98,112" fill="#1a1a1a"/>
  <polygon points="84,192 108,220 148,220 172,192 148,172 108,172" fill="#1a1a1a"/>
  <!-- Stitch lines connecting patches -->
  <line x1="128" y1="48" x2="128" y2="28" stroke="#999" stroke-width="1.5"/>
  <line x1="158" y1="72" x2="178" y2="56" stroke="#999" stroke-width="1.5"/>
  <line x1="98" y1="72" x2="78" y2="56" stroke="#999" stroke-width="1.5"/>
  <line x1="208" y1="140" x2="228" y2="148" stroke="#999" stroke-width="1.5"/>
  <line x1="48" y1="140" x2="28" y2="148" stroke="#999" stroke-width="1.5"/>
  <line x1="182" y1="168" x2="196" y2="188" stroke="#999" stroke-width="1.5"/>
  <line x1="74" y1="168" x2="60" y2="188" stroke="#999" stroke-width="1.5"/>
  <line x1="108" y1="220" x2="100" y2="240" stroke="#999" stroke-width="1.5"/>
  <line x1="148" y1="220" x2="156" y2="240" stroke="#999" stroke-width="1.5"/>
  <line x1="158" y1="112" x2="198" y2="100" stroke="#999" stroke-width="1.5"/>
  <line x1="98" y1="112" x2="58" y2="100" stroke="#999" stroke-width="1.5"/>
  <line x1="148" y1="108" x2="152" y2="152" stroke="#999" stroke-width="1.5"/>
  <line x1="108" y1="108" x2="104" y2="152" stroke="#999" stroke-width="1.5"/>
  <line x1="148" y1="172" x2="172" y2="192" stroke="#999" stroke-width="1.5"/>
  <line x1="108" y1="172" x2="84" y2="192" stroke="#999" stroke-width="1.5"/>
</svg>
